Coordinates
version=1
nRows=10
nColumns=40
inDegrees=yes

Units are S.I. units (second, meters, Newtons, ...)
If the header above contains a line with 'inDegrees', this indicates whether rotational values are in degrees (yes) or radians (no).

endheader
time	pelvis_tilt	pelvis_list	pelvis_rotation	pelvis_tx	pelvis_ty	pelvis_tz	hip_flexion_r	hip_adduction_r	hip_rotation_r	knee_angle_r	knee_angle_r_beta	ankle_angle_r	subtalar_angle_r	mtp_angle_r	hip_flexion_l	hip_adduction_l	hip_rotation_l	knee_angle_l	knee_angle_l_beta	ankle_angle_l	subtalar_angle_l	mtp_angle_l	lumbar_extension	lumbar_bending	lumbar_rotation	arm_flex_r	arm_add_r	arm_rot_r	elbow_flex_r	pro_sup_r	wrist_flex_r	wrist_dev_r	arm_flex_l	arm_add_l	arm_rot_l	elbow_flex_l	pro_sup_l	wrist_flex_l	wrist_dev_l
      3.00000000	     -6.61788367	    -10.23113233	     -3.49790248	     -0.25204441	      1.06462617	     -1.04724115	     36.23616942	     -0.75799239	     -1.07754837	    116.40235339	      2.03160432	    -10.62221885	      0.00000000	      0.00000000	     19.27900944	     -5.36755000	     -2.88735343	     25.96166212	      0.45311648	      5.89763960	      0.00000000	      0.00000000	     -2.59888731	      9.16987229	      1.91616680	     89.46949568	    -13.18658370	     44.67187197	     31.29925787	     84.84134767	      0.00000000	      0.00000000	     89.63137589	    -20.26317791	     43.13213712	     29.04525630	     83.66232585	      0.00000000	      0.00000000
      3.00500000	     -6.77495601	    -10.16621492	     -3.59612536	     -0.25216036	      1.06414456	     -1.04720165	     36.16947600	     -0.72607894	     -1.04078477	    116.33417873	      2.03041445	    -10.66187401	      0.00000000	      0.00000000	     19.52875241	     -5.33229596	     -2.93424496	     26.12094029	      0.45589641	      5.97471370	      0.00000000	      0.00000000	     -2.49791153	      9.10623977	      1.99206194	     89.45279398	    -13.11836682	     44.04198490	     31.29552208	     86.45669544	      0.00000000	      0.00000000	     89.62359402	    -20.30691522	     42.62320592	     29.18898111	     85.24343785	      0.00000000	      0.00000000
      3.01000000	     -6.80706887	    -10.08174299	     -3.51714122	     -0.25254623	      1.06369670	     -1.04734709	     35.97741452	     -0.81319031	     -1.10260134	    116.28956221	      2.02963575	    -10.69762425	      0.00000000	      0.00000000	     19.81532613	     -5.24000610	     -2.90044597	     26.50644772	      0.46262479	      5.97663240	      0.00000000	      0.00000000	     -2.53251198	      9.00481512	      1.93535251	     89.48596837	    -13.11194652	     43.91322895	     31.33927581	     86.32132187	      0.00000000	      0.00000000	     89.64389344	    -20.35713361	     42.65405873	     29.36339559	     85.10871357	      0.00000000	      0.00000000
      3.01500000	     -7.06401644	    -10.25775065	     -3.46745091	     -0.25318694	      1.06284849	     -1.04705492	     35.99668226	     -0.53873908	     -1.35571962	    116.22066202	      2.02843321	    -10.55521360	      0.00000000	      0.00000000	     20.37449590	     -5.46557706	     -2.73394344	     26.94174489	      0.47022215	      6.02540674	      0.00000000	      0.00000000	     -2.34293571	      9.17550943	      1.85625243	     89.48798399	    -12.98863418	     43.45557836	     31.26497932	     86.64360530	      0.00000000	      0.00000000	     89.66239633	    -20.35997471	     42.59818156	     29.33217934	     84.78584486	      0.00000000	      0.00000000
      3.02000000	     -6.98472362	    -10.06332000	     -3.50978427	     -0.25305748	      1.06257865	     -1.04740284	     35.63213281	     -0.70874470	     -1.23823657	    116.15576170	      2.02730049	    -10.54434350	      0.00000000	      0.00000000	     20.33193607	     -5.23166577	     -2.77853013	     27.04324749	      0.47199371	      6.10729061	      0.00000000	      0.00000000	     -2.45895926	      8.97662906	      1.96299556	     89.51448774	    -13.06268901	     43.60503573	     31.28929966	     86.62945458	      0.00000000	      0.00000000	     89.66466306	    -20.33869108	     42.53311085	     29.43069627	     84.76548822	      0.00000000	      0.00000000
      3.02500000	     -7.10178206	    -10.00268424	     -3.46786913	     -0.25336712	      1.06197010	     -1.04754716	     35.50915883	     -0.75630185	     -1.32936825	    116.09526063	      2.02624454	    -10.63166809	      0.00000000	      0.00000000	     20.61302204	     -5.15299834	     -2.66975917	     27.27802210	      0.47609130	      6.19357567	      0.00000000	      0.00000000	     -2.39538146	      8.89935630	      1.94371510	     89.54361014	    -13.15894668	     43.76668701	     31.43113173	     86.33250510	      0.00000000	      0.00000000	     89.67636095	    -20.36927640	     42.52966788	     29.61051978	     84.99856054	      0.00000000	      0.00000000
      3.03000000	     -7.29756378	     -9.88293884	     -3.52610585	     -0.25376964	      1.06120602	     -1.04762486	     35.50366674	     -0.78486304	     -1.29534028	    116.04902367	      2.02543756	    -10.72659818	      0.00000000	      0.00000000	     20.98472422	     -5.06320787	     -2.77625195	     27.52434637	      0.48039047	      6.17986485	      0.00000000	      0.00000000	     -2.27293912	      8.77848656	      1.97875879	     89.54812603	    -13.07072496	     43.37741812	     31.40598004	     86.43556786	      0.00000000	      0.00000000	     89.68272427	    -20.33582002	     42.15663438	     29.58860913	     85.20806555	      0.00000000	      0.00000000
      3.03500000	     -7.54561959	    -10.03833160	     -3.45208181	     -0.25441331	      1.06027629	     -1.04739561	     35.51063017	     -0.54498021	     -1.55091683	    115.96135985	      2.02390753	    -10.69694410	      0.00000000	      0.00000000	     21.56773399	     -5.24565120	     -2.54970508	     28.01770411	      0.48900119	      6.31246582	      0.00000000	      0.00000000	     -2.09235563	      8.92570348	      1.90645529	     89.57027989	    -13.06368357	     43.20430209	     31.44551445	     86.51173387	      0.00000000	      0.00000000	     89.69566945	    -20.32483927	     42.02951289	     29.65820960	     85.18827885	      0.00000000	      0.00000000
      3.04000000	     -7.68441266	    -10.00125699	     -3.46258287	     -0.25464670	      1.05961041	     -1.04743741	     35.39637814	     -0.50610332	     -1.58282991	    115.88781181	      2.02262388	    -10.63859929	      0.00000000	      0.00000000	     21.90993246	     -5.21974771	     -2.50877182	     28.33632833	      0.49456223	      6.37116069	      0.00000000	      0.00000000	     -2.00333372	      8.87212080	      1.93549090	     89.58884011	    -13.18877878	     43.42562770	     31.59459212	     86.28945035	      0.00000000	      0.00000000	     89.70566655	    -20.34319456	     42.14361116	     29.79114218	     85.12272098	      0.00000000	      0.00000000
      3.04500000	     -7.85974813	     -9.97417304	     -3.47496432	     -0.25490175	      1.05888977	     -1.04753613	     35.32606750	     -0.46879607	     -1.63643610	    115.80206742	      2.02112736	    -10.73588650	      0.00000000	      0.00000000	     22.27390382	     -5.20636734	     -2.50050530	     28.61564400	      0.49943721	      6.60746513	      0.00000000	      0.00000000	     -1.87565674	      8.85662357	      1.94578604	     89.58634815	    -13.09509662	     43.01905917	     31.50772400	     86.41300514	      0.00000000	      0.00000000	     89.70501953	    -20.26390753	     41.80920696	     29.67509906	     85.21717464	      0.00000000	      0.00000000
